{"asset":{"version":"2.0","generator":"THREE.GLTFExporter r175"},"scenes":[{"name":"AuxScene","nodes":[20]}],"scene":0,"nodes":[{"mesh":0},{"mesh":1},{"mesh":2},{"mesh":3},{"mesh":4},{"mesh":5},{"mesh":6},{"mesh":7},{"mesh":8},{"mesh":9},{"mesh":10},{"mesh":11},{"mesh":12},{"mesh":13},{"mesh":14},{"mesh":15},{"matrix":[2.2097086912079607,0,-2.209708691207961,0,0,-3.125,0,0,2.209708691207961,0,2.2097086912079607,0,0,0,0,1],"children":[0,1,2,3,4,5,6,7,8,9,10,11,12,13,14,15]},{"children":[16]},{"matrix":[1,0,0,0,0,1,0,0,0,0,1,0,-39.77475611247104,49.99999878928065,30.93592187447481,1],"children":[17]},{"children":[18]},{"children":[19]}],"bufferViews":[{"buffer":0,"byteOffset":0,"byteLength":17136,"target":34962,"byteStride":12},{"buffer":0,"byteOffset":17136,"byteLength":11424,"target":34962,"byteStride":8},{"buffer":0,"byteOffset":28560,"byteLength":17136,"target":34962,"byteStride":12},{"buffer":0,"byteOffset":45696,"byteLength":3312,"target":34962,"byteStride":12},{"buffer":0,"byteOffset":49008,"byteLength":2208,"target":34962,"byteStride":8},{"buffer":0,"byteOffset":51216,"byteLength":3312,"target":34962,"byteStride":12},{"buffer":0,"byteOffset":54528,"byteLength":8496,"target":34962,"byteStride":12},{"buffer":0,"byteOffset":63024,"byteLength":5664,"target":34962,"byteStride":8},{"buffer":0,"byteOffset":68688,"byteLength":8496,"target":34962,"byteStride":12},{"buffer":0,"byteOffset":77184,"byteLength":3312,"target":34962,"byteStride":12},{"buffer":0,"byteOffset":80496,"byteLength":2208,"target":34962,"byteStride":8},{"buffer":0,"byteOffset":82704,"byteLength":3312,"target":34962,"byteStride":12},{"buffer":0,"byteOffset":86016,"byteLength":10224,"target":34962,"byteStride":12},{"buffer":0,"byteOffset":96240,"byteLength":6816,"target":34962,"byteStride":8},{"buffer":0,"byteOffset":103056,"byteLength":10224,"target":34962,"byteStride":12},{"buffer":0,"byteOffset":113280,"byteLength":3312,"target":34962,"byteStride":12},{"buffer":0,"byteOffset":116592,"byteLength":2208,"target":34962,"byteStride":8},{"buffer":0,"byteOffset":118800,"byteLength":3312,"target":34962,"byteStride":12},{"buffer":0,"byteOffset":122112,"byteLength":3312,"target":34962,"byteStride":12},{"buffer":0,"byteOffset":125424,"byteLength":2208,"target":34962,"byteStride":8},{"buffer":0,"byteOffset":127632,"byteLength":3312,"target":34962,"byteStride":12},{"buffer":0,"byteOffset":130944,"byteLength":13680,"target":34962,"byteStride":12},{"buffer":0,"byteOffset":144624,"byteLength":9120,"target":34962,"byteStride":8},{"buffer":0,"byteOffset":153744,"byteLength":13680,"target":34962,"byteStride":12},{"buffer":0,"byteOffset":167424,"byteLength":3312,"target":34962,"byteStride":12},{"buffer":0,"byteOffset":170736,"byteLength":2208,"target":34962,"byteStride":8},{"buffer":0,"byteOffset":172944,"byteLength":3312,"target":34962,"byteStride":12},{"buffer":0,"byteOffset":176256,"byteLength":3312,"target":34962,"byteStride":12},{"buffer":0,"byteOffset":179568,"byteLength":2208,"target":34962,"byteStride":8},{"buffer":0,"byteOffset":181776,"byteLength":3312,"target":34962,"byteStride":12},{"buffer":0,"byteOffset":185088,"byteLength":3312,"target":34962,"byteStride":12},{"buffer":0,"byteOffset":188400,"byteLength":2208,"target":34962,"byteStride":8},{"buffer":0,"byteOffset":190608,"byteLength":3312,"target":34962,"byteStride":12},{"buffer":0,"byteOffset":193920,"byteLength":17136,"target":34962,"byteStride":12},{"buffer":0,"byteOffset":211056,"byteLength":11424,"target":34962,"byteStride":8},{"buffer":0,"byteOffset":222480,"byteLength":17136,"target":34962,"byteStride":12},{"buffer":0,"byteOffset":239616,"byteLength":3312,"target":34962,"byteStride":12},{"buffer":0,"byteOffset":242928,"byteLength":2208,"target":34962,"byteStride":8},{"buffer":0,"byteOffset":245136,"byteLength":3312,"target":34962,"byteStride":12},{"buffer":0,"byteOffset":248448,"byteLength":3312,"target":34962,"byteStride":12},{"buffer":0,"byteOffset":251760,"byteLength":2208,"target":34962,"byteStride":8},{"buffer":0,"byteOffset":253968,"byteLength":3312,"target":34962,"byteStride":12},{"buffer":0,"byteOffset":257280,"byteLength":3312,"target":34962,"byteStride":12},{"buffer":0,"byteOffset":260592,"byteLength":2208,"target":34962,"byteStride":8},{"buffer":0,"byteOffset":262800,"byteLength":3312,"target":34962,"byteStride":12},{"buffer":0,"byteOffset":266112,"byteLength":5040,"target":34962,"byteStride":12},{"buffer":0,"byteOffset":271152,"byteLength":3360,"target":34962,"byteStride":8},{"buffer":0,"byteOffset":274512,"byteLength":5040,"target":34962,"byteStride":12}],"buffers":[{"byteLength":279552,"uri":"data:application/octet-stream;base64,"}],"accessors":[{"bufferView":0,"componentType":5126,"count":1428,"max":[31.540000915527344,21.6299991607666,4.599999904632568],"min":[20.270000457763672,11.890000343322754,-0.6000000238418579],"type":"VEC3"},{"bufferView":1,"componentType":5126,"count":1428,"max":[31.540000915527344,21.329999923706055],"min":[11.890000343322754,-3.5999999046325684],"type":"VEC2"},{"bufferView":2,"componentType":5126,"count":1428,"max":[1,1,1],"min":[-1,-1,-1],"type":"VEC3"},{"bufferView":3,"componentType":5126,"count":276,"max":[28.489999771118164,12.489999771118164,4.599999904632568],"min":[26.3700008392334,8.84000015258789,-0.6000000238418579],"type":"VEC3"},{"bufferView":4,"componentType":5126,"count":276,"max":[28.489999771118164,12.1899995803833],"min":[8.84000015258789,-3.5999999046325684],"type":"VEC2"},{"bufferView":5,"componentType":5126,"count":276,"max":[1,1,1],"min":[-1,-1,-1],"type":"VEC3"},{"bufferView":6,"componentType":5126,"count":708,"max":[28.489999771118164,9.4399995803833,4.599999904632568],"min":[21.799999237060547,2.75,-0.6000000238418579],"type":"VEC3"},{"bufferView":7,"componentType":5126,"count":708,"max":[28.489999771118164,9.140000343322754],"min":[2.75,-3.5999999046325684],"type":"VEC2"},{"bufferView":8,"componentType":5126,"count":708,"max":[1,1,1],"min":[-1,-1,-1],"type":"VEC3"},{"bufferView":9,"componentType":5126,"count":276,"max":[25.440000534057617,12.489999771118164,4.599999904632568],"min":[23.31999969482422,8.84000015258789,-0.6000000238418579],"type":"VEC3"},{"bufferView":10,"componentType":5126,"count":276,"max":[25.440000534057617,12.1899995803833],"min":[8.84000015258789,-3.5999999046325684],"type":"VEC2"},{"bufferView":11,"componentType":5126,"count":276,"max":[1,1,1],"min":[-1,-1,-1],"type":"VEC3"},{"bufferView":12,"componentType":5126,"count":852,"max":[23.920000076293945,32.29999923706055,4.599999904632568],"min":[9.600000381469727,28.649999618530273,-0.6000000238418579],"type":"VEC3"},{"bufferView":13,"componentType":5126,"count":852,"max":[32.29999923706055,32],"min":[9.600000381469727,-3.5999999046325684],"type":"VEC2"},{"bufferView":14,"componentType":5126,"count":852,"max":[1,1,1],"min":[-1,-1,-1],"type":"VEC3"},{"bufferView":15,"componentType":5126,"count":276,"max":[22.399999618530273,7.920000076293945,4.599999904632568],"min":[18.75,5.800000190734863,-0.6000000238418579],"type":"VEC3"},{"bufferView":16,"componentType":5126,"count":276,"max":[22.399999618530273,7.619999885559082],"min":[5.800000190734863,-3.5999999046325684],"type":"VEC2"},{"bufferView":17,"componentType":5126,"count":276,"max":[1,1,1],"min":[-1,-1,-1],"type":"VEC3"},{"bufferView":18,"componentType":5126,"count":276,"max":[19.350000381469727,3.3499999046325684,4.599999904632568],"min":[17.219999313354492,1.2200000286102295,-0.6000000238418579],"type":"VEC3"},{"bufferView":19,"componentType":5126,"count":276,"max":[19.350000381469727,3.049999952316284],"min":[1.2200000286102295,-3.5999999046325684],"type":"VEC2"},{"bufferView":20,"componentType":5126,"count":276,"max":[1,1,1],"min":[-1,-1,-1],"type":"VEC3"},{"bufferView":21,"componentType":5126,"count":1140,"max":[20.8700008392334,29.25,4.599999904632568],"min":[12.649999618530273,2.75,-0.6000000238418579],"type":"VEC3"},{"bufferView":22,"componentType":5126,"count":1140,"max":[29.25,28.950000762939453],"min":[2.75,-3.5999999046325684],"type":"VEC2"},{"bufferView":23,"componentType":5126,"count":1140,"max":[1,1,1],"min":[-1,-1,-1],"type":"VEC3"},{"bufferView":24,"componentType":5126,"count":276,"max":[17.81999969482422,1.8200000524520874,4.599999904632568],"min":[15.699999809265137,-0.30000001192092896,-0.6000000238418579],"type":"VEC3"},{"bufferView":25,"componentType":5126,"count":276,"max":[17.81999969482422,1.600000023841858],"min":[-0.30000001192092896,-3.5999999046325684],"type":"VEC2"},{"bufferView":26,"componentType":5126,"count":276,"max":[1,1,1],"min":[-1,-1,-1],"type":"VEC3"},{"bufferView":27,"componentType":5126,"count":276,"max":[16.299999237060547,3.3499999046325684,4.599999904632568],"min":[14.180000305175781,1.2200000286102295,-0.6000000238418579],"type":"VEC3"},{"bufferView":28,"componentType":5126,"count":276,"max":[16.299999237060547,3.049999952316284],"min":[1.2200000286102295,-3.5999999046325684],"type":"VEC2"},{"bufferView":29,"componentType":5126,"count":276,"max":[1,1,1],"min":[-1,-1,-1],"type":"VEC3"},{"bufferView":30,"componentType":5126,"count":276,"max":[13.25,12.489999771118164,4.599999904632568],"min":[9.600000381469727,10.369999885559082,-0.6000000238418579],"type":"VEC3"},{"bufferView":31,"componentType":5126,"count":276,"max":[13.25,12.1899995803833],"min":[9.600000381469727,-3.5999999046325684],"type":"VEC2"},{"bufferView":32,"componentType":5126,"count":276,"max":[1,1,1],"min":[-1,-1,-1],"type":"VEC3"},{"bufferView":33,"componentType":5126,"count":1428,"max":[11.729999542236328,29.25,4.599999904632568],"min":[0.46000000834465027,19.510000228881836,-0.6000000238418579],"type":"VEC3"},{"bufferView":34,"componentType":5126,"count":1428,"max":[29.25,28.950000762939453],"min":[0.46000000834465027,-3.5999999046325684],"type":"VEC2"},{"bufferView":35,"componentType":5126,"count":1428,"max":[1,1,1],"min":[-1,-1,-1],"type":"VEC3"},{"bufferView":36,"componentType":5126,"count":276,"max":[8.680000305175781,20.110000610351562,4.599999904632568],"min":[6.559999942779541,16.459999084472656,-0.6000000238418579],"type":"VEC3"},{"bufferView":37,"componentType":5126,"count":276,"max":[20.110000610351562,19.809999465942383],"min":[6.559999942779541,-3.5999999046325684],"type":"VEC2"},{"bufferView":38,"componentType":5126,"count":276,"max":[1,1,1],"min":[-1,-1,-1],"type":"VEC3"},{"bufferView":39,"componentType":5126,"count":276,"max":[10.199999809265137,14.020000457763672,4.599999904632568],"min":[6.559999942779541,11.890000343322754,-0.6000000238418579],"type":"VEC3"},{"bufferView":40,"componentType":5126,"count":276,"max":[14.020000457763672,13.720000267028809],"min":[6.559999942779541,-3.5999999046325684],"type":"VEC2"},{"bufferView":41,"componentType":5126,"count":276,"max":[1,1,1],"min":[-1,-1,-1],"type":"VEC3"},{"bufferView":42,"componentType":5126,"count":276,"max":[5.630000114440918,20.110000610351562,4.599999904632568],"min":[3.509999990463257,16.459999084472656,-0.6000000238418579],"type":"VEC3"},{"bufferView":43,"componentType":5126,"count":276,"max":[20.110000610351562,19.809999465942383],"min":[3.509999990463257,-3.5999999046325684],"type":"VEC2"},{"bufferView":44,"componentType":5126,"count":276,"max":[1,1,1],"min":[-1,-1,-1],"type":"VEC3"},{"bufferView":45,"componentType":5126,"count":420,"max":[7.159999847412109,17.059999465942383,4.599999904632568],"min":[3.509999990463257,13.420000076293945,-0.6000000238418579],"type":"VEC3"},{"bufferView":46,"componentType":5126,"count":420,"max":[17.059999465942383,16.760000228881836],"min":[3.509999990463257,-3.5999999046325684],"type":"VEC2"},{"bufferView":47,"componentType":5126,"count":420,"max":[1,1,1],"min":[-1,-1,-1],"type":"VEC3"}],"materials":[{"pbrMetallicRoughness":{"baseColorFactor":[0.6375968739867731,0.6653872982754769,0.7083757798856457,1],"metallicFactor":1,"roughnessFactor":0.1},"doubleSided":true,"extensions":{"KHR_materials_clearcoat":{"clearcoatFactor":0.12,"clearcoatRoughnessFactor":0}}}],"meshes":[{"primitives":[{"mode":4,"attributes":{"POSITION":0,"TEXCOORD_0":1,"NORMAL":2},"material":0}]},{"primitives":[{"mode":4,"attributes":{"POSITION":3,"TEXCOORD_0":4,"NORMAL":5},"material":0}]},{"primitives":[{"mode":4,"attributes":{"POSITION":6,"TEXCOORD_0":7,"NORMAL":8},"material":0}]},{"primitives":[{"mode":4,"attributes":{"POSITION":9,"TEXCOORD_0":10,"NORMAL":11},"material":0}]},{"primitives":[{"mode":4,"attributes":{"POSITION":12,"TEXCOORD_0":13,"NORMAL":14},"material":0}]},{"primitives":[{"mode":4,"attributes":{"POSITION":15,"TEXCOORD_0":16,"NORMAL":17},"material":0}]},{"primitives":[{"mode":4,"attributes":{"POSITION":18,"TEXCOORD_0":19,"NORMAL":20},"material":0}]},{"primitives":[{"mode":4,"attributes":{"POSITION":21,"TEXCOORD_0":22,"NORMAL":23},"material":0}]},{"primitives":[{"mode":4,"attributes":{"POSITION":24,"TEXCOORD_0":25,"NORMAL":26},"material":0}]},{"primitives":[{"mode":4,"attributes":{"POSITION":27,"TEXCOORD_0":28,"NORMAL":29},"material":0}]},{"primitives":[{"mode":4,"attributes":{"POSITION":30,"TEXCOORD_0":31,"NORMAL":32},"material":0}]},{"primitives":[{"mode":4,"attributes":{"POSITION":33,"TEXCOORD_0":34,"NORMAL":35},"material":0}]},{"primitives":[{"mode":4,"attributes":{"POSITION":36,"TEXCOORD_0":37,"NORMAL":38},"material":0}]},{"primitives":[{"mode":4,"attributes":{"POSITION":39,"TEXCOORD_0":40,"NORMAL":41},"material":0}]},{"primitives":[{"mode":4,"attributes":{"POSITION":42,"TEXCOORD_0":43,"NORMAL":44},"material":0}]},{"primitives":[{"mode":4,"attributes":{"POSITION":45,"TEXCOORD_0":46,"NORMAL":47},"material":0}]}],"extensionsUsed":["KHR_materials_clearcoat"]}